<?xml version="1.0" standalone="no"?>
<!DOCTYPE svg PUBLIC "-//W3C//DTD SVG 20010904//EN"
 "http://www.w3.org/TR/2001/REC-SVG-20010904/DTD/svg10.dtd">
<svg version="1.0" xmlns="http://www.w3.org/2000/svg"
 width="1024.000000pt" height="1024.000000pt" viewBox="0 0 1024.000000 1024.000000"
 preserveAspectRatio="xMidYMid meet">

<g transform="translate(0.000000,1024.000000) scale(0.100000,-0.100000)"
fill="#654321" stroke="none">
<path d="M3335 8264 c-16 -3 -75 -14 -130 -25 -476 -97 -888 -361 -1201 -769
-44 -58 -99 -136 -123 -173 -43 -70 -137 -249 -158 -302 -70 -179 -92 -251
-124 -425 -22 -116 -24 -148 -23 -470 0 -336 1 -348 27 -474 53 -252 87 -348
220 -626 103 -215 287 -504 446 -700 l44 -55 -7 55 c-4 30 -9 118 -13 196 -6
147 3 222 48 396 l20 77 -55 98 c-121 217 -223 482 -261 679 -37 193 -42 325
-20 514 19 171 38 261 79 385 199 593 680 1030 1281 1162 126 28 436 25 573
-5 346 -77 598 -218 849 -474 138 -140 221 -253 316 -429 48 -89 128 -279 147
-350 6 -23 14 -39 17 -36 2 3 22 71 43 152 36 134 38 149 26 183 -8 21 -17 57
-21 81 -11 68 -87 251 -149 360 -193 340 -481 614 -831 789 -131 66 -286 118
-460 154 -122 26 -165 30 -335 33 -107 2 -208 1 -225 -1z"/>
<path d="M6475 8254 c-352 -65 -628 -201 -934 -460 -151 -128 -311 -313 -311
-360 0 -9 22 -53 49 -98 26 -45 60 -105 75 -133 14 -29 30 -53 34 -53 5 0 29
31 55 68 117 171 342 361 553 467 191 95 337 133 575 150 160 12 388 -20 563
-80 79 -26 248 -107 341 -163 468 -280 829 -811 898 -1322 36 -262 28 -444
-32 -720 -35 -163 -82 -293 -166 -460 -35 -69 -82 -183 -106 -255 -43 -130
-171 -400 -240 -505 -20 -30 -66 -100 -102 -155 -171 -263 -565 -663 -927
-941 -180 -139 -849 -596 -1055 -721 -56 -33 -66 -43 -51 -49 63 -24 590 243
984 500 420 273 856 644 1178 1001 90 100 345 427 421 540 60 89 194 320 256
443 96 188 175 412 226 637 23 104 41 316 41 492 0 173 -20 424 -39 488 -5 17
-12 46 -15 66 -8 44 -80 266 -106 323 -69 155 -97 210 -138 281 -111 191 -197
300 -366 462 -238 228 -451 364 -731 466 -100 36 -125 43 -260 73 -108 24
-143 27 -355 30 -176 2 -255 -1 -315 -12z"/>
<path d="M4777 6639 c-60 -40 -121 -48 -179 -24 -60 24 -159 23 -228 -4 -33
-12 -80 -43 -114 -73 -57 -50 -59 -51 -90 -39 -127 53 -205 80 -228 81 -25 0
-28 -4 -28 -33 0 -82 52 -218 120 -315 35 -51 40 -65 40 -113 0 -88 34 -169
134 -318 203 -304 187 -425 -88 -668 -66 -59 -136 -121 -155 -138 -42 -38
-142 -161 -184 -229 -58 -91 -133 -257 -153 -341 -19 -77 -33 -232 -28 -310 8
-117 26 -180 82 -287 126 -242 368 -391 745 -458 171 -31 496 -32 628 -3 182
40 327 131 365 229 20 53 15 140 -10 179 -10 15 -37 35 -61 46 -36 16 -50 17
-98 8 -47 -8 -62 -7 -88 6 -42 22 -80 109 -110 250 -21 95 -24 136 -23 305 1
212 0 209 84 494 17 60 34 119 36 130 43 213 25 381 -58 553 -17 33 -77 121
-135 195 -134 172 -165 231 -167 318 0 72 15 109 99 238 48 76 68 138 55 180
-11 37 -59 133 -78 155 -20 23 -29 22 -85 -14z m-171 -2229 c95 -41 142 -112
189 -285 35 -130 72 -215 135 -314 72 -113 107 -141 172 -141 93 0 12 -35
-111 -49 l-71 -7 0 30 c0 43 -31 90 -73 109 -38 18 -116 21 -229 9 l-67 -8 53
56 c187 196 162 475 -54 610 -28 17 -30 20 -10 15 14 -4 43 -15 66 -25z"/>
<path d="M5867 6620 c-121 -31 -204 -106 -222 -203 -13 -69 -77 -103 -210
-113 -120 -9 -135 -13 -145 -40 -7 -17 -5 -36 4 -62 7 -20 18 -63 24 -96 26
-136 88 -187 261 -216 61 -10 121 -26 135 -35 44 -29 66 -76 66 -141 0 -83
-12 -120 -90 -284 -79 -165 -109 -265 -117 -397 -7 -106 2 -158 58 -361 45
-165 65 -285 49 -290 -26 -9 -68 -55 -94 -103 -57 -104 -46 -230 38 -434 l43
-103 -37 -6 c-61 -10 -106 -75 -88 -128 5 -14 16 -29 25 -32 20 -8 627 -8 668
-1 105 19 193 39 228 51 22 8 42 12 44 10 7 -7 -155 -97 -234 -130 -211 -89
-484 -148 -833 -181 -81 -8 -351 -52 -405 -66 -22 -6 -47 -12 -55 -14 -21 -4
-178 -60 -223 -79 -21 -9 -35 -21 -32 -25 3 -5 51 -42 106 -83 56 -40 110 -79
120 -87 17 -12 22 -12 37 2 22 19 190 91 262 111 61 17 412 80 505 91 84 10
350 77 475 120 481 167 919 541 1060 906 106 274 62 564 -115 757 -53 58 -172
148 -182 138 -2 -2 13 -27 33 -57 68 -100 124 -245 139 -359 3 -25 8 -61 11
-80 8 -54 -13 -196 -42 -285 -21 -68 -112 -240 -121 -231 -2 1 6 28 16 58 45
131 53 305 21 475 -40 210 -96 335 -248 558 -125 183 -165 268 -170 359 l-4
68 -62 -60 c-33 -34 -86 -73 -116 -88 -47 -24 -67 -28 -136 -27 -140 2 -232
60 -269 173 -34 101 -3 183 120 320 89 99 139 182 159 266 l14 59 1 -66 c1
-99 -21 -155 -114 -294 -93 -138 -106 -172 -95 -235 20 -111 162 -164 285
-106 176 82 223 320 123 626 -67 206 -194 363 -348 430 -46 20 -74 24 -170 27
-63 1 -132 -2 -153 -7z m133 -291 c0 -82 -21 -145 -66 -198 -36 -42 -99 -83
-144 -96 -21 -6 -20 -4 7 14 59 37 115 102 146 170 26 56 31 78 31 149 1 74 2
80 13 55 7 -15 12 -58 13 -94z"/>
<path d="M3250 5554 c-130 -25 -258 -93 -368 -198 -150 -142 -252 -337 -304
-581 -27 -128 -29 -389 -5 -541 39 -243 186 -545 387 -799 159 -200 466 -459
763 -643 40 -24 169 -104 287 -177 433 -266 695 -462 914 -681 221 -221 343
-422 415 -680 6 -23 18 -47 26 -54 22 -18 42 11 50 70 4 25 11 67 16 94 17 87
23 374 10 481 -14 117 -72 298 -136 424 -121 242 -372 497 -653 663 -106 64
-284 151 -467 231 -325 141 -420 192 -601 321 -313 224 -540 533 -630 860 -32
114 -44 352 -24 474 35 218 152 401 301 472 116 55 238 33 300 -53 55 -76 31
-199 -50 -254 -44 -30 -97 -39 -135 -23 -53 21 -72 22 -89 5 -50 -49 21 -151
123 -175 110 -26 230 10 314 95 54 56 77 96 101 180 51 174 -49 372 -232 457
-61 29 -77 32 -178 34 -60 1 -121 0 -135 -2z"/>
<path d="M6010 3096 c-226 -54 -414 -115 -549 -177 -128 -59 -292 -159 -284
-173 4 -6 26 -41 49 -77 23 -37 52 -86 64 -109 l21 -42 75 81 c41 44 109 108
151 142 111 89 339 236 483 313 69 36 116 65 105 65 -11 0 -63 -11 -115 -23z"/>
</g>
</svg>
